<svg width="357" height="111" viewBox="0 0 357 111" fill="none" xmlns="http://www.w3.org/2000/svg">
<path d="M43.8211 46.2419L43.8256 46.2623L43.8318 46.2455L43.8348 46.2369L43.8211 46.2419Z" fill="#F9F9F9"/>
<path fill-rule="evenodd" clip-rule="evenodd" d="M44.3788 49.8987L44.4071 49.9506C45.7572 49.5326 47.2311 48.866 48.8601 47.8435C51.1383 46.4134 54.2556 44.2029 57.5604 41.8595C59.3431 40.5954 61.1805 39.2924 62.9701 38.0526C66.3479 35.7123 69.2536 34.908 71.6198 35.1662C73.9418 32.3928 74.0649 28.9375 69.8734 28.577C65.7938 28.2295 62.2737 21.6098 62.2737 21.6098C63.8309 23.909 66.1929 24.3285 68.5543 24.7478C70.1265 25.027 71.6984 25.3061 73.0323 26.1399C76.3716 28.2292 77.2967 31.0174 75.8068 34.4963C75.5413 35.1168 75.0878 35.6631 74.5218 36.1419C77.0272 37.6662 78.4968 40.727 78.766 44.1641C78.5298 44.5766 78.2766 44.9623 78.0074 45.3282C79.4013 46.1642 81.0262 47.3695 82.3566 48.9987C82.7341 49.5513 83.1545 49.6146 83.5903 49.3425C83.76 49.237 84.7903 48.4486 86.0298 47.5001C87.9679 46.017 90.4179 44.1422 90.8886 43.8747C91.544 43.5015 94.305 43.822 96.0501 44.6356L95.4598 48.2849C95.1238 48.101 94.8549 47.915 94.7865 47.7692C94.7533 47.698 94.7965 47.5395 94.8873 47.331C94.3823 47.0209 92.0048 45.5791 91.6732 45.7172C91.5728 45.759 91.0054 46.3357 90.2021 47.1524C88.0338 49.3567 84.1464 53.3087 83.077 53.2123C82.2717 53.1397 80.0928 52.7437 78.0676 51.9734C78.0508 52.0492 78.0403 52.0895 78.0403 52.0895C78.0403 52.0895 80.749 55.2538 82.9752 58.1971C84.7761 57.1694 92.2748 54.5702 93.6811 54.3834C93.8934 54.3552 94.1647 54.3681 94.4691 54.4091L94.0956 56.718C93.8866 56.6669 93.6939 56.6387 93.5296 56.6429C92.9232 56.6585 90.468 58.037 87.9383 59.4572C85.8201 60.6464 83.6498 61.8649 82.4689 62.3373C81.4544 62.7428 80.7021 62.0725 79.8533 61.2246C78.1975 59.5725 74.7083 56.2261 73.7651 55.3215L73.7623 55.3188C73.6108 55.1735 73.5258 55.092 73.5257 55.0917C71.3195 56.2306 68.8771 56.7789 66.5394 56.7879C66.5219 56.8142 66.5044 56.8406 66.4867 56.8668C65.9653 57.5504 65.5107 58.1631 65.107 58.7155C62.8542 61.4623 59.9225 63.955 57.3926 65.677C58.078 66.607 58.7067 67.5432 59.1419 68.3616C59.6136 69.2484 61.4018 74.6362 60.7909 76.7557C60.546 77.607 59.1222 81.1948 59.1222 81.1948L59.1124 81.19L59.1214 81.1954C59.1214 81.1954 58.3532 84.8829 57.2394 84.5668C56.1605 84.2607 54.9006 82.4725 55.0292 82.0131C55.2019 81.4001 55.7199 79.9594 56.0701 79.7674C56.124 79.7378 56.2338 79.7512 56.3809 79.7951C56.7473 79.4195 59.2528 76.7972 58.9708 75.6134C58.2331 72.5253 56.3157 69.9067 54.5629 68.0465C55.291 70.4647 55.995 73.8827 55.4298 74.4654C54.2254 75.7129 49.6612 78.7961 47.0178 79.0268C45.0975 79.195 43.0744 79.1189 43.0744 79.1189L43.0748 79.118C42.9509 79.1134 39.3159 78.9697 39.4347 77.8386C39.5531 76.7222 41.101 75.1769 41.5748 75.2255C42.2073 75.2898 43.714 75.5536 43.9641 75.8665C44.0191 75.9353 44.0071 76.1311 43.9548 76.3948C44.2442 76.4922 46.3138 77.1661 47.28 76.8354C50.0706 75.8789 52.7376 73.6928 52.9062 73.1837C53.1246 72.5267 49.414 69.0521 46.7903 66.7002C46.3987 66.5578 46.046 66.4114 45.7427 66.2701L45.7352 66.2875C44.9071 65.5721 44.1465 64.6114 43.5173 63.3228C43.5173 63.3228 42.894 63.1538 41.9556 62.8649C36.1136 61.5858 32.6533 59.0923 30.7008 56.5303C30.6989 56.5305 30.697 56.5306 30.6952 56.5307C30.6898 56.5211 30.6844 56.5114 30.6791 56.5017C30.5852 56.3778 30.4948 56.2536 30.4078 56.1295C30.1808 55.8056 30.0247 55.4571 29.9321 55.0964C29.7592 54.7551 29.593 54.413 29.4379 54.0757C28.0779 51.1178 26.9933 47.1375 26.9933 47.1375C26.2287 48.1208 24.3463 48.554 22.5884 48.3049C21.1161 48.8744 20.5835 49.2785 19.7536 49.9082C19.4077 50.1707 19.0101 50.4724 18.4713 50.8416C17.0726 51.7993 14.8231 49.4246 15.8258 47.8501C16.1354 47.3633 17.0163 46.386 17.9011 45.4046C18.408 44.8423 18.9161 44.2786 19.3188 43.8049C19.7417 43.3075 20.0887 42.8197 20.4273 42.3437C21.4886 40.8518 22.4678 39.4754 25.4431 38.2805C25.4743 37.4718 25.2472 36.5619 24.5387 35.5867C24.324 35.2913 24.218 35.1063 24.1985 35.0099C24.1667 34.8641 24.3302 34.9174 24.6023 35.0922C24.9732 35.3417 25.3311 35.6101 25.6744 35.8964L26.097 36.2412C26.5756 36.6403 27.0583 37.0587 27.4301 37.3852C27.5019 37.2975 27.6008 37.2214 27.7282 37.1677C29.3254 36.4804 31.1127 36.3734 32.7805 36.8653C32.8764 36.893 32.9787 36.9458 33.0807 36.9985C33.1274 37.0226 33.1741 37.0468 33.2201 37.0684C33.7656 37.2676 34.2903 37.5197 34.7867 37.8211C36.4866 38.8747 37.512 40.1121 38.3464 41.3669C39.4127 42.2653 40.6925 42.9927 42.5814 43.3156C42.5814 43.3156 41.624 44.1421 40.0976 44.1399C41.0627 45.5614 42.2494 46.8376 44.4757 47.6868L44.4677 47.7014C44.22 47.8357 41.5857 49.1593 38.9643 46.2276C39.3807 47.5937 40.0935 48.6719 40.7155 49.4189C40.8911 49.433 41.0659 49.4465 41.2396 49.4598C42.3751 49.5469 43.4601 49.6301 44.3788 49.8987ZM26.2336 42.8493C26.1283 43.5142 25.5039 43.9678 24.839 43.8625C24.174 43.7572 23.7203 43.1328 23.8256 42.4679C23.931 41.803 24.5554 41.3493 25.2203 41.4546C25.8852 41.5599 26.3389 42.1843 26.2336 42.8493Z" fill="#F9F9F9"/>
<path d="M42.7459 64.6637L42.7454 64.6682L42.7702 64.6736L42.7459 64.6637Z" fill="#F9F9F9"/>
<path d="M60.5366 31.1935C60.5366 36.7869 56.0021 41.3212 50.4085 41.3212C44.8149 41.3212 40.2804 36.7869 40.2804 31.1935C40.2804 25.6001 44.8149 21.0657 50.4085 21.0657C56.0021 21.0657 60.5366 25.6001 60.5366 31.1935Z" fill="#D2990B"/>
<path d="M82.4125 69.2737C82.4125 74.8671 77.878 79.4015 72.2844 79.4015C66.6908 79.4015 62.1563 74.8671 62.1563 69.2737C62.1563 63.6804 66.6908 59.146 72.2844 59.146C77.878 59.146 82.4125 63.6804 82.4125 69.2737Z" fill="#D2990B"/>
<path d="M37.8485 69.2737C37.8485 74.8671 33.314 79.4015 27.7204 79.4015C22.1269 79.4015 17.5924 74.8671 17.5924 69.2737C17.5924 63.6804 22.1269 59.146 27.7204 59.146C33.314 59.146 37.8485 63.6804 37.8485 69.2737Z" fill="#D2990B"/>
<path fill-rule="evenodd" clip-rule="evenodd" d="M50.3049 111L52.5074 109.882C56.8106 107.698 61.023 105.333 65.0404 102.658C75.9186 95.4151 84.3487 86.5221 90.1734 74.752C96.6439 61.6796 99.0126 46.7918 99.3783 32.2103C99.4116 31.8758 99.4287 31.5367 99.4287 31.1935C99.4287 30.9899 99.4227 30.7878 99.4108 30.5872C99.4415 28.5556 99.4347 26.5316 99.3961 24.5208L99.3197 20.5375L95.4682 19.5008C80.8491 15.5629 65.7609 10.0954 52.9804 1.86233L50.0901 0L47.2059 1.87246C34.1337 10.3599 20.1892 16.098 4.97541 19.4412L1.03692 20.3072L0.812814 24.3277C-0.500173 47.9174 3.47432 71.9879 19.6195 90.214C27.4341 99.0357 37.214 105.462 48.0292 110.037L50.3049 111ZM82.1581 24.013C71.1845 20.4529 60.108 15.8378 50.1103 9.63322C40.1897 15.8936 29.7896 20.687 18.7888 24.1442C20.5567 25.9674 21.6448 28.4534 21.6448 31.1935C21.6448 36.7869 17.1104 41.3212 11.5168 41.3212C10.6391 41.3212 9.78746 41.2096 8.97534 40.9997C10.1522 57.4983 14.9914 72.7703 25.6846 84.8416C30.007 89.7211 35.0595 93.8204 40.6855 97.2355C40.4218 96.3329 40.2804 95.3782 40.2804 94.3905C40.2804 88.7971 44.8149 84.2628 50.4085 84.2628C56.0021 84.2628 60.5366 88.7971 60.5366 94.3905C60.5366 94.9412 60.4926 95.4815 60.4081 96.0083C60.4554 95.9769 60.5026 95.9455 60.5498 95.9141C70.4166 89.3446 77.8041 81.4791 82.9114 71.1585C87.3987 62.093 89.755 51.8511 90.7453 41.2189C90.2735 41.2863 89.7911 41.3212 89.3006 41.3212C83.707 41.3212 79.1725 36.7869 79.1725 31.1935C79.1725 28.3871 80.314 25.8473 82.1581 24.013Z" fill="#D2990B"/>
<path d="M133.195 31.4379H138.562V53H133.195V44.4003H124.376V53H119.009V31.4379H124.376V39.5983H133.195V31.4379ZM153.344 53.3766C147.067 53.3766 141.763 48.2607 141.763 42.2033C141.763 36.1458 147.067 31.0613 153.344 31.0613C159.653 31.0613 164.957 36.1458 164.957 42.2033C164.957 48.2607 159.653 53.3766 153.344 53.3766ZM153.344 48.5118C156.64 48.5118 159.433 45.6243 159.433 42.2033C159.433 38.8136 156.64 35.9261 153.344 35.9261C150.049 35.9261 147.255 38.8136 147.255 42.2033C147.255 45.6243 150.049 48.5118 153.344 48.5118ZM186.942 53H180.853L176.114 46.252H173.477V53H168.11V31.4379H178.122C182.862 31.4379 186.314 34.4824 186.314 38.845C186.314 41.9836 184.525 44.4631 181.732 45.5929L186.942 53ZM173.477 36.3341V41.3559H177.62C179.472 41.3559 180.79 40.3515 180.79 38.845C180.79 37.3385 179.472 36.3341 177.62 36.3341H173.477ZM198.13 53.3766C194.301 53.3766 190.817 52.1212 188.212 49.7673L191.225 46.1579C193.328 47.8841 195.682 48.8885 198.318 48.8885C200.327 48.8885 201.363 48.0724 201.363 46.9112C201.363 45.6243 200.359 45.3419 197.22 44.5886C192.606 43.5529 189.185 42.2974 189.185 37.9662C189.185 33.8233 192.512 31.0613 197.44 31.0613C201.049 31.0613 203.874 32.097 206.165 34.0116L203.434 37.8407C201.457 36.3341 199.291 35.5495 197.283 35.5495C195.556 35.5495 194.584 36.3655 194.584 37.4326C194.584 38.7508 195.619 39.1902 198.821 39.8807C203.654 40.9165 206.761 42.2974 206.761 46.3462C206.761 50.6774 203.466 53.3766 198.13 53.3766ZM226.744 36.24H215.131V39.5983H225.677V44.4003H215.131V48.198H226.744V53H209.764V31.4379H226.744V36.24ZM238.728 53V31.4379H248.74C253.48 31.4379 256.932 34.4824 256.932 38.845C256.932 43.2076 253.48 46.252 248.74 46.252H244.095V53H238.728ZM244.095 41.3559H248.238C250.09 41.3559 251.408 40.3515 251.408 38.845C251.408 37.3385 250.09 36.3341 248.238 36.3341H244.095V41.3559ZM264.874 48.198H275.263V53H259.538V31.4379H264.874V48.198ZM278.177 53V31.4379H283.544V53H278.177ZM287.71 53V31.4379H293.077L302.461 44.1806V31.4379H307.828V53H302.461L293.077 40.2574V53H287.71ZM312.015 53V31.4379H317.382V40.634L325.385 31.4379H331.756L323.565 40.6026L332.384 53H325.918L319.861 44.4631L317.382 47.1309V53H312.015ZM344.234 53.3766C337.956 53.3766 332.652 48.2607 332.652 42.2033C332.652 36.1458 337.956 31.0613 344.234 31.0613C350.542 31.0613 355.846 36.1458 355.846 42.2033C355.846 48.2607 350.542 53.3766 344.234 53.3766ZM344.234 48.5118C347.529 48.5118 350.322 45.6243 350.322 42.2033C350.322 38.8136 347.529 35.9261 344.234 35.9261C340.938 35.9261 338.145 38.8136 338.145 42.2033C338.145 45.6243 340.938 48.5118 344.234 48.5118ZM126.685 77.287C122.07 77.287 118.148 73.3891 118.148 68.7739C118.148 64.1587 122.07 60.2848 126.685 60.2848C129.028 60.2848 131.18 61.2652 132.735 62.8674L131.037 64.4935C129.937 63.2978 128.383 62.5087 126.685 62.5087C123.409 62.5087 120.635 65.3783 120.635 68.7739C120.635 72.1935 123.409 75.063 126.685 75.063C128.383 75.063 129.937 74.2739 131.037 73.0783L132.735 74.7044C131.18 76.2826 129.028 77.287 126.685 77.287ZM140.735 77V70.5674L134.159 60.5718H137.077L141.979 68.2718L146.953 60.5718H149.751L143.222 70.5674V77H140.735ZM152.637 77V60.5718H160.433C163.183 60.5718 165.12 62.2696 165.12 64.6609C165.12 66.3826 164.259 67.4587 162.776 68.2957C164.689 69.2283 165.789 70.7109 165.789 72.5283C165.789 75.1587 163.685 77 160.744 77H152.637ZM155.052 67.4109H159.835C161.485 67.4109 162.657 66.4305 162.657 65.0674C162.657 63.7044 161.485 62.7 159.835 62.7H155.052V67.4109ZM155.052 74.8717H160.194C162.035 74.8717 163.326 73.7478 163.326 72.1696C163.326 70.5913 162.035 69.4674 160.194 69.4674H155.052V74.8717ZM181.368 62.8196H171.731V67.5065H180.435V69.7544H171.731V74.7522H181.368V77H169.292V60.5718H181.368V62.8196ZM197.888 65.9283C197.888 68.4631 196.166 70.4 193.679 71.0457L197.864 77H195.09L191.073 71.2848H187.295V77H184.879V60.5718H191.79C195.258 60.5718 197.888 62.7957 197.888 65.9283ZM187.295 62.8196V69.037H191.455C193.823 69.037 195.425 67.8652 195.425 65.9283C195.425 63.9913 193.823 62.8196 191.455 62.8196H187.295ZM216.332 77.287C211.717 77.287 207.795 73.3891 207.795 68.7739C207.795 64.1587 211.717 60.2848 216.332 60.2848C218.676 60.2848 220.828 61.2652 222.382 62.8674L220.685 64.4935C219.585 63.2978 218.03 62.5087 216.332 62.5087C213.056 62.5087 210.282 65.3783 210.282 68.7739C210.282 72.1935 213.056 75.063 216.332 75.063C218.03 75.063 219.585 74.2739 220.685 73.0783L222.382 74.7044C220.828 76.2826 218.676 77.287 216.332 77.287ZM236.672 60.5718H239.087V77H236.672V69.7544H227.705V77H225.289V60.5718H227.705V67.5065H236.672V60.5718ZM256.079 77L254.644 73.6522H246.083L244.649 77H241.97L249.025 60.5718H251.703L258.757 77H256.079ZM247.016 71.4761H253.712L250.364 63.6805L247.016 71.4761ZM263.872 74.7522H272.577V77H261.433V60.5718H263.872V74.7522ZM277.825 74.7522H286.529V77H275.386V60.5718H277.825V74.7522ZM301.63 62.8196H291.993V67.5065H300.697V69.7544H291.993V74.7522H301.63V77H289.554V60.5718H301.63V62.8196ZM305.428 77V60.5718H307.843L317.289 73.0304V60.5718H319.704V77H317.289L307.843 64.5413V77H305.428ZM331.648 70.2565V68.1522H338.44V74.7044C336.885 76.2826 334.303 77.287 331.983 77.287C327.368 77.287 323.422 73.3891 323.422 68.7739C323.422 64.1587 327.368 60.2848 331.983 60.2848C334.303 60.2848 336.885 61.2652 338.44 62.8674L336.742 64.4935C335.618 63.2739 333.681 62.5087 331.983 62.5087C328.683 62.5087 325.909 65.3783 325.909 68.7739C325.909 72.1935 328.683 75.063 331.983 75.063C333.37 75.063 334.924 74.5609 336.048 73.7V70.2565H331.648ZM354.417 62.8196H344.78V67.5065H353.484V69.7544H344.78V74.7522H354.417V77H342.341V60.5718H354.417V62.8196Z" fill="white"/>
</svg>
